<svg width="471" height="438" viewBox="0 0 471 438" fill="none" xmlns="http://www.w3.org/2000/svg">
<g filter="url(#filter0_d_5_2)">
<path d="M19.0027 330.791L19.9973 71.6991C19.9989 71.2793 20.2626 70.9051 20.6575 70.7624L174.638 15.1306C174.871 15.0465 175.127 15.0517 175.356 15.1452L250.378 45.7462C250.754 45.8997 251 46.2657 251 46.6721V134.41C251 135.1 251.682 135.583 252.333 135.353L275.643 127.126C275.873 127.045 276.125 127.051 276.351 127.143L351.376 157.58C351.753 157.733 352 158.1 352 158.507V245.085C352 245.775 352.683 246.258 353.334 246.028L375.643 238.126C375.873 238.045 376.125 238.05 376.351 238.142L451.375 268.452C451.753 268.605 452 268.971 452 269.379V369.003C452 369.419 451.743 369.791 451.354 369.939L306.34 424.871C306.12 424.954 305.878 424.958 305.657 424.88L220.671 395.234C220.269 395.094 220 394.715 220 394.29V390.419C220 389.727 219.315 389.245 218.664 389.477L206.338 393.879C206.119 393.957 205.881 393.957 205.662 393.878L163 378.5L120.671 363.734C120.269 363.594 120 363.215 120 362.79V360V357.477C120 356.77 119.285 356.286 118.629 356.549L105.35 361.86C105.124 361.95 104.874 361.955 104.645 361.874L19.6685 331.737C19.2681 331.595 19.0011 331.216 19.0027 330.791Z" stroke="#C8C7B1" stroke-width="29" shape-rendering="crispEdges"/>
</g>
<path d="M20 71L105 101V361L20 331V71Z" fill="#3D6627" stroke="#C8C7B1" stroke-width="0.9"/>
<path d="M105 101L250 46V306L105 361" fill="#3D6627"/>
<path d="M105 101L250 46V306L105 361" stroke="#C8C7B1" stroke-width="0.9"/>
<path d="M20 71L175 16L249 46L105 101L20 71Z" fill="#7E976E" stroke="#274116"/>
<path d="M33 71L175 21L237 46L105 96L34 71" stroke="#3D6627" stroke-width="2"/>
<path d="M105 111L249 56ZM105 121L249 66ZM105 131L249 76ZM105 141L249 86ZM105 151L249 96ZM105 161L249 106ZM105 171L249 116ZM105 181L249 126ZM105 191L249 136ZM105 201L249 146ZM105 211L249 156ZM105 221L249 166ZM105 231L249 176ZM105 241L249 186ZM105 251L249 196ZM105 261L249 206ZM105 271L249 216ZM105 281L249 226ZM105 291L249 236ZM105 301L249 246ZM105 311L249 256ZM105 321L249 266ZM105 331L249 276ZM105 341L249 286ZM105 351L249 296Z" fill="#CCE0D1"/>
<path d="M105 111L249 56M105 121L249 66M105 131L249 76M105 141L249 86M105 151L249 96M105 161L249 106M105 171L249 116M105 181L249 126M105 191L249 136M105 201L249 146M105 211L249 156M105 221L249 166M105 231L249 176M105 241L249 186M105 251L249 196M105 261L249 206M105 271L249 216M105 281L249 226M105 291L249 236M105 301L249 246M105 311L249 256M105 321L249 266M105 331L249 276M105 341L249 286M105 351L249 296" stroke="#274116" stroke-width="2"/>
<path d="M79 49L155 79L190 66L115 36" fill="#E5E5D5"/>
<path d="M79 49L155 79L190 66L115 36" stroke="#E5E5D5" stroke-width="0.1"/>
<path d="M155 79V342L190 329V66" fill="#C8C7B1"/>
<path d="M155 79V342L190 329V66" stroke="#FF0000" stroke-width="0.1"/>
<path d="M20 81L105 111ZM20 91L105 121ZM20 101L105 131ZM20 111L105 141ZM20 121L105 151ZM20 131L105 161ZM20 141L105 171ZM20 151L105 181ZM20 161L105 191ZM20 171L105 201ZM20 181L105 211ZM20 191L105 221ZM20 201L105 231ZM20 211L105 241ZM20 221L105 251ZM20 231L105 261ZM20 241L105 271ZM20 251L105 281ZM20 261L105 291ZM20 271L105 301ZM20 281L105 311ZM20 291L105 321ZM20 301L105 331ZM20 311L105 341ZM20 321L105 351Z" fill="#CCE0D1"/>
<path d="M20 81L105 111M20 91L105 121M20 101L105 131M20 111L105 141M20 121L105 151M20 131L105 161M20 141L105 171M20 151L105 181M20 161L105 191M20 171L105 201M20 181L105 211M20 191L105 221M20 201L105 231M20 211L105 241M20 221L105 251M20 231L105 261M20 241L105 271M20 251L105 281M20 261L105 291M20 271L105 301M20 281L105 311M20 291L105 321M20 301L105 331M20 311L105 341M20 321L105 351" stroke="#274116" stroke-width="2"/>
<path d="M121 183L206 213V393L121 363V183Z" fill="#3D6627" stroke="#C8C7B1" stroke-width="0.9"/>
<path d="M206 213L351 158V338L206 393" fill="#3D6627"/>
<path d="M206 213L351 158V338L206 393" stroke="#C8C7B1" stroke-width="0.9"/>
<path d="M121 183L276 128L350 158L206 213L121 183Z" fill="#7E976E" stroke="#274116"/>
<path d="M134 183L276 133L338 158L206 208L135 183" stroke="#3D6627" stroke-width="2"/>
<path d="M121 193L206 223ZM121 203L206 233ZM121 213L206 243ZM121 223L206 253ZM121 233L206 263ZM121 243L206 273ZM121 253L206 283ZM121 263L206 293ZM121 273L206 303ZM121 283L206 313ZM121 293L206 323ZM121 303L206 333ZM121 313L206 343ZM121 323L206 353ZM121 333L206 363ZM121 343L206 373ZM121 353L206 383Z" fill="#CCE0D1"/>
<path d="M121 193L206 223M121 203L206 233M121 213L206 243M121 223L206 253M121 233L206 263M121 243L206 273M121 253L206 283M121 263L206 293M121 273L206 303M121 283L206 313M121 293L206 323M121 303L206 333M121 313L206 343M121 323L206 353M121 333L206 363M121 343L206 373M121 353L206 383" stroke="#274116" stroke-width="2"/>
<path d="M206 223L350 168ZM206 233L350 178ZM206 243L350 188ZM206 253L350 198ZM206 263L350 208ZM206 273L350 218ZM206 283L350 228ZM206 293L350 238ZM206 303L350 248ZM206 313L350 258ZM206 323L350 268ZM206 333L350 278ZM206 343L350 288ZM206 353L350 298ZM206 363L350 308ZM206 373L350 318ZM206 383L350 328Z" fill="#CCE0D1"/>
<path d="M206 223L350 168M206 233L350 178M206 243L350 188M206 253L350 198M206 263L350 208M206 273L350 218M206 283L350 228M206 293L350 238M206 303L350 248M206 313L350 258M206 323L350 268M206 333L350 278M206 343L350 288M206 353L350 298M206 363L350 308M206 373L350 318M206 383L350 328" stroke="#274116" stroke-width="2"/>
<path d="M180 161L256 191L291 178L216 148" fill="#E5E5D5"/>
<path d="M180 161L256 191L291 178L216 148" stroke="#E5E5D5" stroke-width="0.1"/>
<path d="M256 191V374L291 361V178" fill="#C8C7B1"/>
<path d="M256 191V374L291 361V178" stroke="#FF0000" stroke-width="0.1"/>
<path d="M221 294L306 324V424L221 394V294Z" fill="#3D6627"/>
<path d="M221 294L306 324V424L221 394V294Z" stroke="#3D6627" stroke-width="0.9"/>
<path d="M221 294L306 324V424L221 394V294Z" stroke="#040202" stroke-opacity="0.2" stroke-width="0.9"/>
<path d="M306 324L451 269V369L306 424" fill="#3D6627"/>
<path d="M306 324L451 269V369L306 424" stroke="#3D6627" stroke-width="0.9"/>
<path d="M306 324L451 269V369L306 424" stroke="#040202" stroke-opacity="0.2" stroke-width="0.9"/>
<path d="M221 294L376 239L450 269L306 324L221 294Z" fill="#7E976E"/>
<path d="M221 294L376 239L450 269L306 324L221 294Z" stroke="#3D6627"/>
<path d="M221 294L376 239L450 269L306 324L221 294Z" stroke="#040202" stroke-opacity="0.2"/>
<path d="M234 294L376 244L438 269L306 319L235 294" stroke="#3D6627" stroke-width="2"/>
<path d="M234 294L376 244L438 269L306 319L235 294" stroke="#040202" stroke-opacity="0.2" stroke-width="2"/>
<path d="M221 304L306 334ZM221 314L306 344ZM221 324L306 354ZM221 334L306 364ZM221 344L306 374ZM221 354L306 384ZM221 364L306 394ZM221 374L306 404ZM221 384L306 414Z" fill="#CCE0D1"/>
<path d="M221 304L306 334M221 314L306 344M221 324L306 354M221 334L306 364M221 344L306 374M221 354L306 384M221 364L306 394M221 374L306 404M221 384L306 414" stroke="#3D6627" stroke-width="2"/>
<path d="M221 304L306 334M221 314L306 344M221 324L306 354M221 334L306 364M221 344L306 374M221 354L306 384M221 364L306 394M221 374L306 404M221 384L306 414" stroke="#040202" stroke-opacity="0.2" stroke-width="2"/>
<path d="M306 334L450 279ZM306 344L450 289ZM306 354L450 299ZM306 364L450 309ZM306 374L450 319ZM306 384L450 329ZM306 394L450 339ZM306 404L450 349ZM306 414L450 359Z" fill="#CCE0D1"/>
<path d="M306 334L450 279M306 344L450 289M306 354L450 299M306 364L450 309M306 374L450 319M306 384L450 329M306 394L450 339M306 404L450 349M306 414L450 359" stroke="#3D6627" stroke-width="2"/>
<path d="M306 334L450 279M306 344L450 289M306 354L450 299M306 364L450 309M306 374L450 319M306 384L450 329M306 394L450 339M306 404L450 349M306 414L450 359" stroke="#040202" stroke-opacity="0.2" stroke-width="2"/>
<path d="M280 272L356 302L391 289L316 259" fill="#E5E5D5"/>
<path d="M280 272L356 302L391 289L316 259" stroke="#3D6627" stroke-width="0.1"/>
<path d="M280 272L356 302L391 289L316 259" stroke="#040202" stroke-opacity="0.2" stroke-width="0.1"/>
<path d="M356 302V405L391 392V289" fill="#C8C7B1"/>
<path d="M356 302V405L391 392V289" stroke="#3D6627" stroke-width="0.1"/>
<path d="M356 302V405L391 392V289" stroke="#040202" stroke-opacity="0.2" stroke-width="0.1"/>
<defs>
<filter id="filter0_d_5_2" x="0.502686" y="0.571106" width="469.997" height="446.865" filterUnits="userSpaceOnUse" color-interpolation-filters="sRGB">
<feFlood flood-opacity="0" result="BackgroundImageFix"/>
<feColorMatrix in="SourceAlpha" type="matrix" values="0 0 0 0 0 0 0 0 0 0 0 0 0 0 0 0 0 0 127 0" result="hardAlpha"/>
<feOffset dy="4"/>
<feGaussianBlur stdDeviation="2"/>
<feComposite in2="hardAlpha" operator="out"/>
<feColorMatrix type="matrix" values="0 0 0 0 0 0 0 0 0 0 0 0 0 0 0 0 0 0 0.25 0"/>
<feBlend mode="normal" in2="BackgroundImageFix" result="effect1_dropShadow_5_2"/>
<feBlend mode="normal" in="SourceGraphic" in2="effect1_dropShadow_5_2" result="shape"/>
</filter>
</defs>
</svg>
