<svg width="524" height="339" viewBox="0 0 524 339" fill="none" xmlns="http://www.w3.org/2000/svg">
<g filter="url(#filter0_d)">
<rect x="4" width="516" height="331" rx="30" fill="white"/>
</g>
<path d="M4 30C4 13.4315 17.4315 0 34 0H490C506.569 0 520 13.4315 520 30V109H4V30Z" fill="#3E70EE"/>
<rect x="321" y="130" width="64" height="46" fill="#C4C4C4"/>
<rect x="321" y="261" width="64" height="46" fill="#C4C4C4"/>
<rect x="235" y="261" width="64" height="46" fill="#C4C4C4"/>
<rect x="235" y="195" width="64" height="46" fill="#C4C4C4"/>
<rect x="410" y="195" width="64" height="46" fill="#C4C4C4"/>
<rect x="410" y="130" width="64" height="46" fill="#C4C4C4"/>
<rect x="321" y="194" width="64" height="48" fill="#C4C4C4"/>
<rect x="60" y="261" width="64" height="46" fill="#C4C4C4"/>
<rect x="148" y="261" width="64" height="46" fill="#C4C4C4"/>
<rect x="60" y="195" width="64" height="47" fill="#C4C4C4"/>
<rect x="148" y="130" width="64" height="46" fill="#C4C4C4"/>
<rect x="235" y="130" width="64" height="46" fill="#C4C4C4"/>
<rect x="148" y="195" width="64" height="46" fill="#C4C4C4"/>
<defs>
<filter id="filter0_d" x="0" y="0" width="524" height="339" filterUnits="userSpaceOnUse" color-interpolation-filters="sRGB">
<feFlood flood-opacity="0" result="BackgroundImageFix"/>
<feColorMatrix in="SourceAlpha" type="matrix" values="0 0 0 0 0 0 0 0 0 0 0 0 0 0 0 0 0 0 127 0"/>
<feOffset dy="4"/>
<feGaussianBlur stdDeviation="2"/>
<feColorMatrix type="matrix" values="0 0 0 0 0 0 0 0 0 0 0 0 0 0 0 0 0 0 0.25 0"/>
<feBlend mode="normal" in2="BackgroundImageFix" result="effect1_dropShadow"/>
<feBlend mode="normal" in="SourceGraphic" in2="effect1_dropShadow" result="shape"/>
</filter>
</defs>
</svg>
