<svg width="358" height="207" viewBox="0 0 358 207" fill="none" xmlns="http://www.w3.org/2000/svg">
<path d="M23.3519 132C137.728 223.498 205.161 230.65 333.629 133.998" stroke="black" stroke-width="6"/>
<path d="M330.952 133.39C207.433 15.3048 139.505 15.6689 20.6748 133.39" stroke="black" stroke-width="6"/>
<line y1="-3" x2="42.6177" y2="-3" transform="matrix(-0.622096 -0.782941 0.697714 -0.716377 46.5123 112.367)" stroke="black" stroke-width="6"/>
<line y1="-3" x2="42.7016" y2="-3" transform="matrix(-0.609961 -0.792432 0.708996 -0.705212 85.0463 74.8381)" stroke="black" stroke-width="6"/>
<line y1="-3" x2="42.4332" y2="-3" transform="matrix(0.648231 -0.761444 0.672643 0.739967 316 117.311)" stroke="black" stroke-width="6"/>
<line y1="-3" x2="42.6512" y2="-3" transform="matrix(0.617276 -0.786747 0.702222 0.711958 279.819 84.9326)" stroke="black" stroke-width="6"/>
<line y1="-3" x2="44.0551" y2="-3" transform="matrix(-0.3775 -0.926009 0.884745 -0.466075 124.631 51.7954)" stroke="black" stroke-width="6"/>
<line y1="-3" x2="43.3705" y2="-3" transform="matrix(0.505884 -0.862602 0.796991 0.603991 228 57.4115)" stroke="black" stroke-width="6"/>
<ellipse cx="180.132" cy="120.401" rx="29.0061" ry="31.4741" fill="black"/>
<line x1="176" x2="176" y2="44.963" stroke="black" stroke-width="6"/>
</svg>
