<?xml version="1.0" standalone="no"?>
<!DOCTYPE svg PUBLIC "-//W3C//DTD SVG 20010904//EN"
 "http://www.w3.org/TR/2001/REC-SVG-20010904/DTD/svg10.dtd">
<svg version="1.0" xmlns="http://www.w3.org/2000/svg"
 width="468.000000pt" height="468.000000pt" viewBox="0 0 468.000000 468.000000"
 preserveAspectRatio="xMidYMid meet">
<metadata>
Created by potrace 1.14, written by Peter Selinger 2001-2017
</metadata>
<g transform="translate(0.000000,468.000000) scale(0.100000,-0.100000)"
fill="#000000" stroke="none">
<path d="M1690 4368 c-14 -5 -95 -34 -180 -65 -85 -30 -173 -61 -195 -69 -22
-8 -69 -24 -105 -35 -168 -54 -368 -125 -435 -154 -22 -10 -114 -44 -205 -75
-293 -103 -375 -132 -380 -137 -6 -5 -8 -2582 -2 -2600 2 -6 18 -15 35 -19 17
-3 38 -10 47 -15 8 -5 94 -36 190 -70 96 -33 211 -73 255 -89 44 -15 121 -42
170 -60 50 -17 106 -38 126 -45 20 -8 40 -10 45 -6 10 9 113 46 129 46 6 0 10
-15 10 -34 l0 -33 135 -48 c475 -169 716 -253 725 -252 6 0 40 12 78 26 l67
26 -2 -31 -3 -31 420 -149 c231 -82 427 -150 435 -150 8 -1 62 18 120 40 58
23 128 50 155 60 122 45 382 143 400 151 11 5 164 64 340 130 176 66 347 131
380 144 l60 24 0 501 0 500 -165 67 c-247 99 -380 154 -425 174 -22 10 -70 28
-106 41 l-65 22 -115 -41 c-64 -23 -118 -42 -120 -42 -3 0 -4 197 -4 438 1
240 -1 443 -3 450 -2 6 -10 12 -18 12 -8 0 -22 4 -32 9 -63 32 -685 281 -702
281 -9 0 -67 -18 -129 -40 -61 -22 -115 -40 -119 -40 -4 0 -7 203 -7 451 l0
451 -70 27 c-39 15 -206 83 -371 149 -166 67 -310 122 -320 121 -11 0 -30 -5
-44 -11z"/>
</g>
</svg>
